<?xml version="1.0" encoding="UTF-8"?><svg id="Layer_3" xmlns="http://www.w3.org/2000/svg" viewBox="0 0 835.25 310.88"><g id="company_name"><text transform="translate(301.08 124.96)" font-family="ITCAvantGardePro-BoldObl, &apos;ITC Avant Garde Gothic Pro Bold&apos;" font-size="127.96" font-style="oblique" font-weight="700"><tspan x="0" y="0" letter-spacing="-.06em">A</tspan><tspan x="89.83" y="0" letter-spacing="-.03em">u</tspan><tspan x="166.98" y="0" letter-spacing="-.05em">t</tspan><tspan x="205.37" y="0" letter-spacing="-.04em">o</tspan><tspan x="285.98" y="0" fill="#f60" letter-spacing="-.09em">.</tspan></text><text transform="translate(270.11 243.19)" font-family="ITCAvantGardePro-BoldObl, &apos;ITC Avant Garde Gothic Pro Bold&apos;" font-size="127.96" font-style="oblique" font-weight="700" letter-spacing="-.04em"><tspan x="0" y="0">CHECK</tspan></text></g><g id="LOGO"><path d="M136.92,84c14.61,0,27.84,5.93,37.42,15.5,5.73,5.73,10.15,12.77,12.78,20.63.34,1.02,1.25,1.67,2.32,1.67h50.11c.74,0,1.39-.3,1.87-.87.48-.57.67-1.25.54-1.99-3.78-22.22-14.43-42.1-29.7-57.37-19.28-19.28-45.92-31.21-75.35-31.21s-56.06,11.93-75.34,31.21c-15.27,15.27-25.92,35.15-29.7,57.37-.12.73.06,1.42.54,1.99.48.57,1.12.87,1.87.87h38.07c.76,0,1.41.31,1.89.89.48.58.66,1.28.51,2.02-.77,3.95-1.18,8.03-1.18,12.21s.41,8.26,1.18,12.21c.15.74-.03,1.44-.51,2.02-.48.58-1.13.89-1.89.89h-38.07c-.74,0-1.39.3-1.87.86-.48.57-.67,1.25-.54,1.99,3.78,22.22,14.43,42.1,29.7,57.37,15.27,15.27,35.15,25.92,57.37,29.69.73.13,1.42-.06,1.99-.54.57-.48.87-1.12.87-1.87v-38.06c0-.76.31-1.41.89-1.89.58-.48,1.28-.66,2.02-.51,3.95.77,8.04,1.18,12.21,1.18s8.26-.41,12.21-1.18c.74-.14,1.44.03,2.02.51.58.48.89,1.13.89,1.89v38.06c0,.74.3,1.39.86,1.87.57.48,1.25.67,1.99.54,12.15-2.06,23.59-6.18,33.97-11.99.96-.54,2.12-.38,2.91.39l18.78,18.46c.55.54.8,1.23.72,2-.08.77-.47,1.39-1.12,1.81-21.18,13.43-46.3,21.21-73.23,21.21-37.81,0-72.04-15.33-96.82-40.1C15.33,208.96,0,174.73,0,136.92S15.33,64.88,40.11,40.11C64.88,15.33,99.11,0,136.92,0s72.04,15.33,96.82,40.11c24.78,24.78,40.1,59.01,40.1,96.82,0,31.28-10.49,60.1-28.14,83.16-.75.98-.66,2.36.23,3.23l3.36,3.31c.96.94.97,2.49.03,3.45l-17.81,18.11c-.94.96-2.49.97-3.45.03l-55.01-54.08c-.96-.94-.97-2.49-.03-3.46l2.09-2.13c.94-.96.93-2.51-.03-3.45l-4.65-4.57c-.85-.83-2.14-.94-3.12-.26-8.6,6.04-19.08,9.6-30.39,9.6-14.61,0-27.84-5.93-37.42-15.5-9.58-9.58-15.5-22.81-15.5-37.42s5.93-27.84,15.5-37.42c9.58-9.58,22.81-15.5,37.42-15.5h0ZM224.25,198c8.85-12.63,15.03-27.27,17.72-43.1.12-.73-.06-1.42-.54-1.99-.48-.57-1.12-.87-1.87-.87h-50.11c-1.07,0-1.98.65-2.32,1.67-1.61,4.8-3.88,9.3-6.71,13.37-.69.99-.56,2.3.29,3.14l4.57,4.49c.96.94,2.51.93,3.45-.03l2.09-2.13c.94-.96,2.49-.97,3.45-.03l26.25,25.8c.53.52,1.19.76,1.94.69.74-.07,1.35-.42,1.78-1.03h0ZM152.88,120.97c-4.08-4.08-9.72-6.6-15.95-6.6s-11.87,2.53-15.95,6.6c-4.08,4.08-6.61,9.72-6.61,15.95s2.53,11.87,6.61,15.95c4.08,4.08,9.72,6.6,15.95,6.6s11.87-2.53,15.95-6.6c4.08-4.08,6.6-9.72,6.6-15.95s-2.53-11.87-6.6-15.95h0Z" fill="#f60"/></g></svg>